<?xml version="1.0" encoding="utf-8"?>
<!-- Generator: Adobe Illustrator 22.1.0, SVG Export Plug-In . SVG Version: 6.00 Build 0)  -->
<svg version="1.1" id="Layer_1" xmlns="http://www.w3.org/2000/svg" xmlns:xlink="http://www.w3.org/1999/xlink" x="0px" y="0px"
	 viewBox="0 0 200 200" enable-background="new 0 0 200 200" xml:space="preserve">
<g>
	<circle fill="#FF7D00" cx="100" cy="100" r="100"/>
	<path fill="#C2C2C2" d="M135.8,172.7H59.2c-5.9,0-10.7-4.8-10.7-10.7V45c0-5.9,4.8-10.7,10.7-10.7h76.6c5.9,0,10.7,4.8,10.7,10.7
		v117.1C146.5,167.9,141.7,172.7,135.8,172.7z"/>
	<path fill="#FFFFFF" d="M68.4,23.2c-5.9,0-10.8,4.8-10.8,10.8v116.8c0,5.9,4.8,10.8,10.8,10.8h77.4c5.9,0,10.8-4.8,10.8-10.8V48.5
		l-25.3-25.3H68.4z"/>
	<polygon fill="#C2C2C2" points="131.3,23.2 131.3,48.5 156.6,48.5 	"/>
	<path fill="#C2C2C2" d="M114.7,48.5H69.2c-1.4,0-2.5-1.1-2.5-2.5v-0.1c0-1.4,1.1-2.5,2.5-2.5h45.5c1.4,0,2.5,1.1,2.5,2.5V46
		C117.2,47.4,116,48.5,114.7,48.5z"/>
	<path fill="#C2C2C2" d="M146,78.8H69.2c-1.4,0-2.5-1.1-2.5-2.5v-0.1c0-1.4,1.1-2.5,2.5-2.5H146c1.4,0,2.5,1.1,2.5,2.5v0.1
		C148.5,77.7,147.4,78.8,146,78.8z"/>
	<path fill="#C2C2C2" d="M146,92.9H69.2c-1.4,0-2.5-1.1-2.5-2.5v-0.1c0-1.4,1.1-2.5,2.5-2.5H146c1.4,0,2.5,1.1,2.5,2.5v0.1
		C148.5,91.8,147.4,92.9,146,92.9z"/>
	<path fill="#C2C2C2" d="M146,107.1H69.2c-1.4,0-2.5-1.1-2.5-2.5v-0.1c0-1.4,1.1-2.5,2.5-2.5H146c1.4,0,2.5,1.1,2.5,2.5v0.1
		C148.5,105.9,147.4,107.1,146,107.1z"/>
	<path fill="#C2C2C2" d="M146,121.2H69.2c-1.4,0-2.5-1.1-2.5-2.5v-0.1c0-1.4,1.1-2.5,2.5-2.5H146c1.4,0,2.5,1.1,2.5,2.5v0.1
		C148.5,120.1,147.4,121.2,146,121.2z"/>
</g>
</svg>
